# xmcd
#
# Track frame offsets:
#	150
#	27757
#	42729
#	53095
#	64340
#	75720
#	87829
#	100471
#	112333
#	123546
#	135445
#	146713
#	160086
#	174210
#	187744
#	200931
#	210806
#	221065
#	232463
#	244826
#
# Disc length: 3420 seconds
#
# Revision: 0
# Processed by: cddbd v1.5.2PL0 Copyright (c) Steve Scherf et al.
# Submitted via: EasyCDDAExtractor 11.1.0.1
#
DISCID=2b0d5a14
DTITLE=Various Artist - American triology
DYEAR=2008
DGENRE=country
TTITLE0=The Osmonds - American triology
TTITLE1=Willie Nelson - Face of a fighter
TTITLE2=Elvis Presley - I want to be free
TTITLE3=Arthur Crudrup - My baby left me
TTITLE4=Sonny James - That's me without you
TTITLE5=The Delmore Brothers - You can't do wrong and get by
TTITLE6=Al Dexter - Pistol packin' mama
TTITLE7=Johnny Cash - Doin' my time
TTITLE8=Patsy Cline - Hungry for love
TTITLE9=Jim Reeves - My leaps are sealed
TTITLE10=Hank Williams - I heard that lonesome whistle blowing
TTITLE11=Willie Nelson - The last letter
TTITLE12=Louis Jordan and his Typany Five - Ration Blues
TTITLE13=Merle Travis - Divorce me C.O.D.
TTITLE14=Tex Ritter - When you leave don't slam the door
TTITLE15=Hank Snow and Anita Carter - Down the trail of Achin' hearts
TTITLE16=Patsy Cline - Too many secrets
TTITLE17=Elvis Presley - Is it so strange
TTITLE18=Johnny Cash - Give my love to Rose
TTITLE19=Eddy Arnold  - Enclosed one broken heart
EXTD=
EXTT0=
EXTT1=
EXTT2=
EXTT3=
EXTT4=
EXTT5=
EXTT6=
EXTT7=
EXTT8=
EXTT9=
EXTT10=
EXTT11=
EXTT12=
EXTT13=
EXTT14=
EXTT15=
EXTT16=
EXTT17=
EXTT18=
EXTT19=
PLAYORDER=
